<svg xmlns="http://www.w3.org/2000/svg" width="102" height="128" viewBox="0 0 102 128"><title>page-404-icon</title><path d="M93.35,11.46,93.17,7l-5,.2-75.43,3-6,.24L7,16.66,11.44,128l86.46-3.48ZM9.77,13.38l80.49-3.32,4.58,111.56-80.49,3.32Z" style="fill:#f7cb1b"/><path d="M56.66,69.5l15.72,14-4,4.46L52.67,74l-14,15.7-4.47-4L48.2,70,32.49,56l4-4.46,15.72,14,14-15.7,4.47,4Z" style="fill:#fff"/><path d="M24.93,9.75l1.16-1.3L19.53,2.59,12.7,10.24,10.86,12.3l-2,2.24L7,16.66,0,24.45,6.56,30.3l.9-1,1.9-2.13L23.09,11.81Z" style="fill:#fff"/><path d="M79.27,0,73.71,6.81l1.14.93,2.32,1.89L91.77,21.51l2.05,1.67,2.62,2.14L102,18.51l-8.65-7L91.29,9.79l-.85-.69L88.12,7.21Z" style="fill:#fff"/></svg>