<svg xmlns="http://www.w3.org/2000/svg" width="1280" height="982" viewBox="0 0 1280 982"><title>bg-hero</title><path d="M1280,0h-1.49l-51.84,39.77L1174.83,0h-3L1120,39.77,1068.16,0h-3l-51.84,39.77L961.49,0h-3L906.67,39.77,854.83,0h-3L800,39.77,748.16,0h-3L693.33,39.77,641.49,0h-3L586.67,39.77,534.83,0h-3L480,39.77,428.16,0h-3L373.33,39.77,321.49,0h-3L266.67,39.77,214.83,0h-3L160,39.77,108.16,0h-3L53.33,39.77,1.49,0H0V1.15L51.84,40.92,0,80.69v84.12l51.84,39.77L0,244.35v84.13l51.84,39.77L0,408v84.13l51.84,39.77L0,571.69v84.12l51.84,39.77L0,735.35v84.13l51.84,39.77L0,899v83H1.49l-.43-.33V902.13l50.77,39L105.17,982h3l53.33-40.92,50.77-39v79.54l-.43.33h3l-.43-.33V902.13l50.77,39L318.51,982h3l53.33-40.92,50.77-39v79.54l-.43.33h3l-.43-.33V902.13l50.77,39L531.84,982h3l53.33-40.92,50.77-39v79.54l-.43.33h3l-.43-.33V902.13l50.77,39L745.17,982h3l53.33-40.92,50.77-39v79.54l-.43.33h3l-.43-.33V902.13l50.77,39L958.51,982h3l53.34-40.92,50.77-39v79.54l-.43.33h3l-.43-.33V902.13l50.78,39L1171.84,982h3l53.33-40.92,50.77-39v79.54l-.42.33H1280V899l-51.84-39.77L1280,819.48V735.35l-51.84-39.77L1280,655.81V571.69l-51.84-39.77L1280,492.15V408l-51.84-39.77L1280,328.48V244.35l-51.84-39.77L1280,164.81V80.69l-51.84-39.77L1280,1.15ZM1120,694.44l-52.27-40.1V574.8l50.78,39,53.33,40.92Zm52.27-37.81v79.54L1120,776.27l-51.84-39.77,53.33-40.92Zm-1064.11-2,53.33-40.92,50.77-39v79.54L160,694.44ZM211.84,736.5,160,776.27l-52.27-40.1V656.63l50.77,39ZM961.49,491l53.34-40.92,50.77-39v79.54l-52.27,40.1Zm103.68,81.83-51.84,39.77-52.26-40.1V493l50.77,39ZM1065.6,327l-52.27,40.1-51.84-39.77,53.34-40.92,50.77-39Zm1.07,1.47,51.84,39.77L1066.67,408l-51.84-39.77Zm-54.83,39.77,53.33,40.92-51.84,39.77-52.26-40.1V329.3Zm0,81.83L960,489.85l-51.84-39.77L960,410.31ZM908.16,531.92l50.77-39v79.54l-52.27,40.1-51.84-39.77Zm-1.49-1.15-52.27-40.1V411.13l50.77,39L958.51,491Zm52.27-121.93-52.27,40.1-51.84-39.77,53.33-40.92,50.77-39ZM906.67,367.1,854.4,327V247.46l50.77,39,53.33,40.92Zm-1.49,1.15L853.33,408l-51.84-39.77,51.84-39.77ZM748.16,491l53.33-40.92,50.77-39v79.54L800,530.77Zm103.68,81.83L800,612.6l-52.27-40.1V493l50.77,39ZM852.27,327,800,367.1l-51.84-39.77,53.33-40.92,50.77-39Zm-53.76,41.24,53.33,40.92L800,448.94l-52.27-40.1V329.3Zm0,81.83-51.84,39.77-51.84-39.77,51.84-39.77ZM694.83,531.92l50.77-39v79.54l-52.27,40.1-51.84-39.77Zm-1.49-1.15-52.27-40.1V411.13l50.77,39L745.17,491ZM745.6,408.84l-52.27,40.1-51.84-39.77,53.33-40.92,50.77-39ZM693.33,367.1,641.07,327V247.46l50.77,39,53.33,40.92Zm-1.49,1.15L640,408l-51.84-39.77L640,328.48ZM534.83,491l53.33-40.92,50.77-39v79.54l-52.27,40.1Zm103.68,81.83L586.67,612.6l-52.27-40.1V493l50.77,39ZM638.93,327l-52.27,40.1-51.84-39.77,53.33-40.92,50.77-39Zm-53.76,41.24,53.33,40.92-51.84,39.77-52.27-40.1V329.3Zm0,81.83-51.84,39.77-51.84-39.77,51.84-39.77ZM481.49,531.92l50.77-39v79.54L480,612.6l-51.84-39.77ZM480,530.77l-52.27-40.1V411.13l50.77,39L531.84,491Zm52.27-121.93L480,448.94l-51.84-39.77,53.33-40.92,50.77-39ZM480,367.1,427.73,327V247.46l50.77,39,53.33,40.92Zm-1.49,1.15L426.67,408l-51.84-39.77,51.84-39.77ZM321.49,491l53.33-40.92,50.77-39v79.54l-52.27,40.1Zm103.68,81.83L373.33,612.6l-52.27-40.1V493l50.77,39ZM425.6,327l-52.27,40.1-51.84-39.77,53.33-40.92,50.77-39Zm-53.76,41.24,53.33,40.92-51.84,39.77-52.27-40.1V329.3Zm0,81.83L320,489.85l-51.84-39.77L320,410.31ZM268.16,531.92l50.77-39v79.54l-52.27,40.1-51.84-39.77Zm-1.49-1.15-52.27-40.1V411.13l50.77,39L318.51,491Zm52.27-121.93-52.27,40.1-51.84-39.77,53.33-40.92,50.77-39ZM266.67,367.1,214.4,327V247.46l50.77,39,53.33,40.92Zm-1.49,1.15L213.33,408l-51.84-39.77,51.84-39.77ZM212.27,327,160,367.1l-51.84-39.77,53.33-40.92,50.77-39Zm-53.76,41.24,53.33,40.92L160,448.94l-52.27-40.1V329.3Zm3,81.83,50.77-39v79.54L160,530.77,108.16,491Zm-3,81.83,53.33,40.92L160,612.6l-52.27-40.1V493Zm3,0,51.84-39.77,51.84,39.77-51.84,39.77ZM214.4,574.8l50.77,39,53.33,40.92-51.84,39.77-52.27-40.1Zm53.76,120.79,50.77-39v79.54l-52.27,40.1L214.83,736.5Zm0-81.83L320,574l51.84,39.77L320,653.52Zm52.91,42.88,50.77,39,53.33,40.92-51.84,39.77-52.27-40.1Zm.43-2,53.33-40.92,50.77-39v79.54l-52.27,40.1Zm53.33-122.75,51.84-39.77,51.84,39.77-51.84,39.77Zm52.91,42.88,50.77,39,53.33,40.92L480,694.44l-52.27-40.1Zm53.76,120.79,50.77-39v79.54L480,776.27,428.16,736.5Zm0-81.83L533.33,574l51.84,39.77-51.84,39.77Zm52.91,42.88,50.77,39,53.33,40.92-51.84,39.77-52.27-40.1Zm.43-2,53.33-40.92,50.77-39v79.54l-52.27,40.1Zm53.33-122.75L640,492.15l51.84,39.77L640,571.69Zm52.91,42.88,50.77,39,53.33,40.92-51.84,39.77-52.27-40.1Zm53.76,120.79,50.77-39v79.54l-52.27,40.1L641.49,736.5Zm0-81.83L746.67,574l51.84,39.77-51.84,39.77Zm52.91,42.88,50.77,39,53.33,40.92L800,776.27l-52.27-40.1Zm.43-2,53.33-40.92,50.77-39v79.54L800,694.44Zm53.33-122.75,51.84-39.77,51.84,39.77-51.84,39.77ZM854.4,574.8l50.77,39,53.33,40.92-51.84,39.77-52.27-40.1Zm53.76,120.79,50.77-39v79.54l-52.27,40.1L854.83,736.5Zm0-81.83L960,574l51.84,39.77L960,653.52Zm52.91,42.88,50.77,39,53.33,40.92-51.84,39.77-52.26-40.1Zm.43-2,53.34-40.92,50.77-39v79.54l-52.27,40.1Zm53.34-122.75,51.84-39.77,51.84,39.77-51.84,39.77Zm53.33,40.92,53.33-40.92,50.78-39v79.54L1120,612.6ZM1120,530.77l-52.27-40.1V411.13l50.78,39L1171.84,491Zm-51.84-121.6,53.33-40.92,50.78-39v79.54L1120,448.94ZM1120,367.1,1067.73,327V247.46l50.78,39,53.33,40.92Zm-51.84-121.6,53.33-40.92,50.78-39v79.54L1120,285.27ZM1120,203.44l-52.27-40.1V83.8l50.78,39,53.33,40.92Zm-1.49,1.14-51.84,39.77-51.84-39.77,51.84-39.77Zm-52.91-41.24-52.27,40.1-51.84-39.77,53.34-40.92,50.77-39Zm-53.76,41.24,53.33,40.92-51.84,39.77-52.26-40.1V165.63Zm0,81.83L960,326.19l-51.84-39.77L960,246.65Zm-52.91-41.24-52.27,40.1L854.83,245.5l53.33-40.92,50.77-39Zm-52.27-41.74-52.27-40.1V83.8l50.77,39,53.33,40.92Zm-1.49,1.14-51.84,39.77-51.84-39.77,51.84-39.77Zm-52.91-41.24L800,203.44l-51.84-39.77,53.33-40.92,50.77-39Zm-53.76,41.24,53.33,40.92L800,285.27l-52.27-40.1V165.63Zm0,81.83-51.84,39.77-51.84-39.77,51.84-39.77ZM745.6,245.17l-52.27,40.1L641.49,245.5l53.33-40.92,50.77-39Zm-52.27-41.74-52.27-40.1V83.8l50.77,39,53.33,40.92Zm-1.49,1.14L640,244.35l-51.84-39.77L640,164.81Zm-52.91-41.24-52.27,40.1-51.84-39.77,53.33-40.92,50.77-39Zm-53.76,41.24,53.33,40.92-51.84,39.77-52.27-40.1V165.63Zm0,81.83-51.84,39.77-51.84-39.77,51.84-39.77Zm-52.91-41.24L480,285.27,428.16,245.5l53.33-40.92,50.77-39ZM480,203.44l-52.27-40.1V83.8l50.77,39,53.33,40.92Zm-1.49,1.14-51.84,39.77-51.84-39.77,51.84-39.77ZM425.6,163.34l-52.27,40.1-51.84-39.77,53.33-40.92,50.77-39Zm-53.76,41.24,53.33,40.92-51.84,39.77-52.27-40.1V165.63Zm0,81.83L320,326.19l-51.84-39.77L320,246.65Zm-52.91-41.24-52.27,40.1L214.83,245.5l53.33-40.92,50.77-39Zm-52.27-41.74-52.27-40.1V83.8l50.77,39,53.33,40.92Zm-1.49,1.14-51.84,39.77-51.84-39.77,51.84-39.77Zm-52.91-41.24L160,203.44l-51.84-39.77,53.33-40.92,50.77-39Zm-53.76,41.24,53.33,40.92L160,285.27l-52.27-40.1V165.63Zm0,81.83-51.84,39.77L54.83,286.42l51.84-39.77Zm0,163.67-51.84,39.77L54.83,450.08l51.84-39.77Zm0,163.67-51.84,39.77L54.83,613.75,106.67,574Zm0,163.67-51.84,39.77L54.83,777.42l51.84-39.77Zm3,0,50.77-39V818L160,858.1l-51.84-39.77Zm0-81.83,51.84-39.77,51.84,39.77-51.84,39.77Zm52.91,42.88,50.77,39,53.33,40.92L266.67,858.1,214.4,818Zm53.76,39L320,737.65l51.84,39.77L320,817.19Zm106.67,0,50.77-39V818l-52.27,40.1-51.84-39.77Zm0-81.83,51.84-39.77,51.84,39.77-51.84,39.77Zm52.91,42.88,50.77,39,53.33,40.92L480,858.1,427.73,818Zm53.76,39,51.84-39.77,51.84,39.77-51.84,39.77Zm106.67,0,50.77-39V818l-52.27,40.1-51.84-39.77Zm0-81.83L640,655.81l51.84,39.77L640,735.35Zm52.91,42.88,50.77,39,53.33,40.92L693.33,858.1,641.07,818Zm53.76,39,51.84-39.77,51.84,39.77-51.84,39.77Zm106.67,0,50.77-39V818L800,858.1l-51.84-39.77Zm0-81.83,51.84-39.77,51.84,39.77-51.84,39.77Zm52.91,42.88,50.77,39,53.33,40.92L906.67,858.1,854.4,818Zm53.76,39L960,737.65l51.84,39.77L960,817.19Zm106.67,0,50.77-39V818l-52.27,40.1-51.84-39.77Zm0-81.83,51.84-39.77,51.84,39.77-51.84,39.77Zm52.9,42.88,50.78,39,53.33,40.92L1120,858.1,1067.73,818Zm53.76,39,51.84-39.77,51.84,39.77-51.84,39.77Zm0-163.67L1173.33,574l51.84,39.77-51.84,39.77Zm0-163.67,51.84-39.77,51.84,39.77-51.84,39.77Zm0-163.67,51.84-39.77,51.84,39.77-51.84,39.77Zm0-163.67L1173.33,83l51.84,39.77-51.84,39.77Zm0-81.83,50.78-39V81.51L1120,121.6l-51.84-39.77ZM1066.67,1.15l51.84,39.77-51.84,39.77-51.84-39.77ZM961.07,2l50.77,39,53.33,40.92-51.84,39.77-52.26-40.1Zm50.77,120.79L960,162.52l-51.84-39.77L960,83ZM908.16,40.92,958.93,2V81.51l-52.27,40.1L854.83,81.83ZM853.33,1.15l51.84,39.77L853.33,80.69,801.49,40.92ZM747.73,2l50.77,39,53.33,40.92L800,121.6l-52.27-40.1Zm50.77,120.79-51.84,39.77-51.84-39.77L746.67,83ZM694.83,40.92,745.6,2V81.51l-52.27,40.1L641.49,81.83ZM640,1.15l51.84,39.77L640,80.69,588.16,40.92ZM534.4,2l50.77,39,53.33,40.92L586.67,121.6,534.4,81.51Zm50.77,120.79-51.84,39.77-51.84-39.77L533.33,83ZM481.49,40.92,532.27,2V81.51L480,121.6,428.16,81.83ZM426.67,1.15l51.84,39.77L426.67,80.69,374.83,40.92ZM321.07,2l50.77,39,53.33,40.92L373.33,121.6l-52.27-40.1Zm50.77,120.79L320,162.52l-51.84-39.77L320,83ZM268.16,40.92,318.93,2V81.51l-52.27,40.1L214.83,81.83ZM213.33,1.15l51.84,39.77L213.33,80.69,161.49,40.92ZM107.73,2l50.77,39,53.33,40.92L160,121.6l-52.27-40.1Zm50.77,120.79-51.84,39.77L54.83,122.75,106.67,83ZM54.83,40.92,105.6,2V81.51L53.33,121.6,1.49,81.83ZM1.07,163.34V83.8l50.77,39,53.33,40.92L53.33,203.44Zm53.76,41.24,50.77-39v79.54l-52.27,40.1L1.49,245.5ZM1.07,327V247.46l50.77,39,53.33,40.92L53.33,367.1Zm53.76,41.24,50.77-39v79.54l-52.27,40.1L1.49,409.17ZM1.07,490.67V411.13l50.77,39L105.17,491,53.33,530.77Zm53.76,41.24,50.77-39v79.54L53.33,612.6,1.49,572.83ZM1.07,654.34V574.8l50.77,39,53.33,40.92L53.33,694.44Zm53.76,41.24,50.77-39v79.54l-52.27,40.1L1.49,736.5ZM1.07,818V738.46l50.77,39,53.33,40.92L53.33,858.1Zm.43,82.16,53.33-40.92,50.77-39v79.54l-52.27,40.1Zm105.17,80.69L54.83,941.08l51.84-39.77,51.84,39.77ZM160,939.94l-52.27-40.1V820.3l50.77,39,53.33,40.92ZM213.33,899l-51.84-39.77,51.84-39.77,51.84,39.77Zm1.49,1.15,53.33-40.92,50.77-39v79.54l-52.27,40.1ZM320,980.85l-51.84-39.77L320,901.31l51.84,39.77Zm53.33-40.92-52.27-40.1V820.3l50.77,39,53.33,40.92ZM426.67,899l-51.84-39.77,51.84-39.77,51.84,39.77Zm1.49,1.15,53.33-40.92,50.77-39v79.54L480,939.94Zm105.17,80.69-51.84-39.77,51.84-39.77,51.84,39.77Zm53.33-40.92-52.27-40.1V820.3l50.77,39,53.33,40.92ZM640,899l-51.84-39.77L640,819.48l51.84,39.77Zm1.49,1.15,53.33-40.92,50.77-39v79.54l-52.27,40.1Zm105.17,80.69-51.84-39.77,51.84-39.77,51.84,39.77ZM800,939.94l-52.27-40.1V820.3l50.77,39,53.33,40.92ZM853.33,899l-51.84-39.77,51.84-39.77,51.84,39.77Zm1.49,1.15,53.33-40.92,50.77-39v79.54l-52.27,40.1ZM960,980.85l-51.84-39.77L960,901.31l51.84,39.77Zm53.33-40.92-52.26-40.1V820.3l50.77,39,53.33,40.92ZM1066.67,899l-51.84-39.77,51.84-39.77,51.84,39.77Zm1.49,1.15,53.33-40.92,50.78-39v79.54L1120,939.94Zm105.17,80.69-51.84-39.77,51.84-39.77,51.84,39.77Zm105.18-80.69-51.84,39.77-52.27-40.1V820.3l50.77,39Zm.42-82.16-52.26,40.1-51.84-39.77,53.33-40.92,50.77-39Zm-.42-81.51-51.84,39.77-52.27-40.1V656.63l50.77,39Zm.42-82.16-52.26,40.1-51.84-39.77,53.33-40.92,50.77-39Zm-.42-81.51-51.84,39.77-52.27-40.1V493l50.77,39Zm.42-82.16-52.26,40.1L1174.83,491l53.33-40.92,50.77-39Zm-.42-81.51-51.84,39.77-52.27-40.1V329.3l50.77,39Zm.42-82.16-52.26,40.1-51.84-39.77,53.33-40.92,50.77-39Zm-.42-81.51-51.84,39.77-52.27-40.1V165.63l50.77,39Zm.42-82.16-52.26,40.1-51.84-39.77,53.33-40.92,50.77-39Zm-.42-81.51-51.84,39.77-52.27-40.1V2l50.77,39Z" style="fill:#e4be2b"/></svg>