<svg xmlns="http://www.w3.org/2000/svg" xmlns:xlink="http://www.w3.org/1999/xlink" width="141.34" height="180.49" viewBox="0 0 141.34 180.49"><defs><mask id="a" x="-1.66" y="-1" width="143" height="182" maskUnits="userSpaceOnUse"><rect x="-1.66" y="-1" width="143" height="182" style="fill:#fff"/></mask></defs><title>news-corner-w-icon</title><g style="mask:url(#a)"><polygon points="46.36 34.46 46.36 0 1.41 0 23.75 17.13 46.36 34.46" style="fill:#fff"/><polygon points="46.36 107.29 46.36 71.9 23.09 54.05 0 71.75 23.75 89.96 46.36 107.29" style="fill:#fff"/><polygon points="69.92 53.54 46.84 35.84 23.75 53.54 46.84 71.24 69.92 53.54" style="fill:#fff"/><polygon points="93.67 71.75 70.58 54.05 47.31 71.9 47.31 107.29 69.92 89.96 93.67 71.75" style="fill:#fff"/><polygon points="93.86 143.71 93.86 108.31 70.58 90.47 47.5 108.17 71.25 126.38 93.86 143.71" style="fill:#fff"/><polygon points="141.34 36.23 118.75 53.54 141.34 70.86 141.34 36.23" style="fill:#fff"/><polygon points="141.34 71.88 118.08 54.05 95 71.75 118.75 89.96 141.34 107.27 141.34 71.88" style="fill:#fff"/><polygon points="141.17 108.17 118.08 90.47 94.81 108.31 94.81 143.71 117.42 126.38 141.17 108.17" style="fill:#fff"/><polygon points="117.42 89.96 94.33 72.26 71.25 89.96 94.33 107.66 117.42 89.96" style="fill:#fff"/><polygon points="141.34 0 96.41 0 118.75 17.13 141.34 34.44 141.34 0" style="fill:#fff"/><polygon points="141.17 35.33 118.08 17.64 94.81 35.48 94.81 70.88 117.42 53.54 141.17 35.33" style="fill:#fff"/><polygon points="117.42 17.13 95.08 0 93.59 0 71.25 17.13 94.33 34.82 117.42 17.13" style="fill:#fff"/><polygon points="93.86 70.88 93.86 35.48 70.58 17.64 47.5 35.33 71.25 53.54 93.86 70.88" style="fill:#fff"/><polygon points="92.26 0 47.31 0 47.31 34.46 69.92 17.13 92.26 0" style="fill:#fff"/><polygon points="141.34 109.06 118.75 126.38 141.34 143.69 141.34 109.06" style="fill:#fff"/><polygon points="141.34 144.71 118.08 126.89 95 144.58 118.75 162.79 141.34 180.11 141.34 144.71" style="fill:#fff"/><polygon points="71.25 162.79 94.33 180.49 117.42 162.79 94.33 145.09 71.25 162.79" style="fill:#fff"/><polygon points="46.84 108.68 23.75 126.38 46.84 144.07 69.92 126.38 46.84 108.68" style="fill:#fff"/><polygon points="0 144.58 23.75 162.79 46.36 180.13 46.36 144.73 23.09 126.89 0 144.58" style="fill:#fff"/><polygon points="70.58 126.89 47.31 144.73 47.31 180.13 69.92 162.79 93.67 144.58 70.58 126.89" style="fill:#fff"/></g></svg>