<svg xmlns="http://www.w3.org/2000/svg" style="display:none"><symbol id="arrow-right" viewBox="0 0 55 14.73"><title>arrow-right</title><path d="M54.71 6.66L48.34.29a1 1 0 0 0-1.41 1.41l4.66 4.66H0v2h51.59L46.93 13a1 1 0 0 0 1.41 1.41l6.36-6.36a1 1 0 0 0 .01-1.39z"/></symbol><symbol id="facebook-icon" viewBox="0 0 26 26"><title>facebook-icon</title><path d="M0 0v26h26V0zm17.2 7.16h-2a.88.88 0 0 0-.81.73V10h2.81c-.11 1.59-.35 3-.35 3h-2.5v9h-3.73v-9H8.8v-3h1.82V7.49c0-.49-.1-3.49 3.82-3.49h2.76v3.16z"/></symbol><symbol id="google-plus-icon" viewBox="0 0 26 26"><title>google-plus-icon</title><path d="M0 0v26h26V0zm9.24 19.58a6.58 6.58 0 1 1 0-13.16 6.1 6.1 0 0 1 4.42 1.78l-1.79 1.7a3.62 3.62 0 0 0-2.63-1 4.14 4.14 0 0 0 0 8.27A3.61 3.61 0 0 0 13 14.32H9.24v-2.26h6.21a4.21 4.21 0 0 1 .09 1.13 6 6 0 0 1-6.3 6.39zm14.1-5.64h-1.88v1.88h-1.88v-1.88H17.7v-1.88h1.88v-1.88h1.88v1.88h1.88z"/></symbol><symbol id="it-doors-logo" viewBox="0 0 74.84 27.49"><title>IT-Doors-logo</title><path d="M40.85 9.41a7.81 7.81 0 0 0-3.67-.64h-4.29v10.08h4.3a8 8 0 0 0 3.71-.61 2.43 2.43 0 0 0 1.1-2.31v-4.1a2.55 2.55 0 0 0-1.15-2.42zm-1.31 6.52a.94.94 0 0 1-.53 1 5.92 5.92 0 0 1-1.93.21h-1.77V10.5h1.85a4.36 4.36 0 0 1 1.78.28 1 1 0 0 1 .59 1zM51 17.52a3 3 0 0 0 .23-1.25v-2.22a3.3 3.3 0 0 0-.23-1.33 2.29 2.29 0 0 0-.59-.85 2.47 2.47 0 0 0-.91-.46 5.23 5.23 0 0 0-1-.2h-2.16a5.22 5.22 0 0 0-1 .2 2.49 2.49 0 0 0-.91.46 2.3 2.3 0 0 0-.59.85 3.3 3.3 0 0 0-.24 1.33v2.22a3 3 0 0 0 .23 1.25 2.2 2.2 0 0 0 .57.81 2.37 2.37 0 0 0 .89.44 5.53 5.53 0 0 0 1 .19h2.22a5.51 5.51 0 0 0 1-.19 2.38 2.38 0 0 0 .89-.44 2.23 2.23 0 0 0 .6-.81zm-2-1a1 1 0 0 1-.3.82 3.46 3.46 0 0 1-2.5 0 1 1 0 0 1-.3-.82v-2.83a1.06 1.06 0 0 1 .31-.86 3.14 3.14 0 0 1 2.48 0 1.06 1.06 0 0 1 .31.86zM59.6 11.88a2.48 2.48 0 0 0-.91-.46 5.2 5.2 0 0 0-1-.2h-2.16a5.21 5.21 0 0 0-1 .2 2.51 2.51 0 0 0-.91.46 2.31 2.31 0 0 0-.59.85 3.31 3.31 0 0 0-.24 1.33v2.22a3 3 0 0 0 .21 1.24 2.2 2.2 0 0 0 .58.81 2.34 2.34 0 0 0 .89.44 5.51 5.51 0 0 0 1 .19h2.22a5.52 5.52 0 0 0 1-.19 2.37 2.37 0 0 0 .89-.44 2.19 2.19 0 0 0 .57-.81 3 3 0 0 0 .24-1.25v-2.22a3.29 3.29 0 0 0-.24-1.33 2.29 2.29 0 0 0-.55-.84zm-1.44 4.66a1 1 0 0 1-.3.82 3.46 3.46 0 0 1-2.5 0 1 1 0 0 1-.3-.82v-2.85a1.06 1.06 0 0 1 .31-.86 3.14 3.14 0 0 1 2.48 0 1.06 1.06 0 0 1 .31.86zM65 11.64a1.33 1.33 0 0 0-.65 1v-1.31H62.2v7.51h2.27v-4.51a1.06 1.06 0 0 1 .47-1 2.76 2.76 0 0 1 1.4-.29h.78v-1.86h-.81a2.2 2.2 0 0 0-1.31.46zM72.07 14.11h-1a.94.94 0 0 1-.6-.15.44.44 0 0 1-.19-.34v-.4a.52.52 0 0 1 .25-.51 3.26 3.26 0 0 1 1.2-.13q.31 0 2.73.19v-1.45q-1.93-.14-2.67-.14a7.77 7.77 0 0 0-2.76.39 1.41 1.41 0 0 0-1 1.41v.92a1.6 1.6 0 0 0 .66 1.39 3.1 3.1 0 0 0 1.84.48h1a1.43 1.43 0 0 1 .87.18.68.68 0 0 1 .2.54v.47a.51.51 0 0 1-.37.52 3.18 3.18 0 0 1-1 .13 23.83 23.83 0 0 1-3-.33v1.51a22.92 22.92 0 0 0 3 .23h1.11a6.45 6.45 0 0 0 1-.16 2.42 2.42 0 0 0 .83-.35 1.72 1.72 0 0 0 .53-.63 2.05 2.05 0 0 0 .21-1v-.95q-.08-1.82-2.84-1.82zM34.87 21.86q-1.74 0-1.74 1.19v2q0 1.13 1.74 1.13a3.72 3.72 0 0 0 .6 0 2.68 2.68 0 0 0 .56-.16.94.94 0 0 0 .44-.35 1 1 0 0 0 .16-.58V23q0-1.14-1.76-1.14zM36 25q0 .72-1.15.72T33.73 25v-2a.75.75 0 0 1 .1-.39.6.6 0 0 1 .27-.24 1.3 1.3 0 0 1 .36-.11 2.88 2.88 0 0 1 .43 0Q36 22.27 36 23zM40.38 25.32a.33.33 0 0 1-.19.33 1.7 1.7 0 0 1-.67.09 1.34 1.34 0 0 1-.36 0 .39.39 0 0 1-.21-.12.42.42 0 0 1-.08-.16.77.77 0 0 1 0-.19V23h-.58v2.27a.88.88 0 0 0 .23.67 1.23 1.23 0 0 0 .84.22q.93 0 1-.44v.38H41V23h-.58zM43.54 22H43v1h-.69v.38H43v1.82a1 1 0 0 0 .23.76 1.24 1.24 0 0 0 .81.2 3.83 3.83 0 0 0 .65-.05v-.38l-.46.05a.83.83 0 0 1-.52-.11.58.58 0 0 1-.13-.44v-1.87h1.11V23h-1.15zM47.33 24.26H47c-.38 0-.57-.1-.57-.31v-.26a.31.31 0 0 1 .17-.3 1.44 1.44 0 0 1 .62-.09 6 6 0 0 1 1 .09V23l-.94-.05c-.92 0-1.38.24-1.38.73v.29a.67.67 0 0 0 .25.55 1.14 1.14 0 0 0 .74.2h.35a.85.85 0 0 1 .44.08.3.3 0 0 1 .13.28v.31a.29.29 0 0 1-.19.3 1.7 1.7 0 0 1-.58.07 8.29 8.29 0 0 1-1.08-.12v.44a7.81 7.81 0 0 0 1.06.08 2.13 2.13 0 0 0 1-.19.72.72 0 0 0 .35-.69V25q-.06-.74-1.04-.74zM52.33 23.18A.66.66 0 0 0 52 23a1.87 1.87 0 0 0-.38-.07h-1a1.85 1.85 0 0 0-.38.07.67.67 0 0 0-.31.18 1 1 0 0 0-.18.33 1.56 1.56 0 0 0-.07.52v1.07a1.52 1.52 0 0 0 .09.58.6.6 0 0 0 .31.32 1.47 1.47 0 0 0 .43.13 5.61 5.61 0 0 0 .6 0h.48a1.86 1.86 0 0 0 .38-.07.7.7 0 0 0 .31-.17.82.82 0 0 0 .18-.31 1.48 1.48 0 0 0 .07-.49V24a1.59 1.59 0 0 0-.07-.52.94.94 0 0 0-.13-.3zm-.33 2a1 1 0 0 1 0 .33.3.3 0 0 1-.17.18.79.79 0 0 1-.25.07h-.38a3 3 0 0 1-.38 0 .8.8 0 0 1-.25-.07.3.3 0 0 1-.17-.18 1 1 0 0 1 0-.33v-1.25c0-.29.06-.46.17-.53a2.22 2.22 0 0 1 1.33 0q.17.1.17.53zM56.31 25.32a.33.33 0 0 1-.19.33 1.71 1.71 0 0 1-.66.09 1.35 1.35 0 0 1-.36 0 .38.38 0 0 1-.21-.12.43.43 0 0 1-.08-.16.77.77 0 0 1 0-.19V23h-.58v2.27a.88.88 0 0 0 .23.67 1.22 1.22 0 0 0 .84.22q.93 0 1-.44v.38h.58V23h-.58zM59.44 23.09a.48.48 0 0 0-.28.4V23h-.54v3.09h.58V23.9a.4.4 0 0 1 .19-.38 1.26 1.26 0 0 1 .58-.1h.32v-.49H60a1.07 1.07 0 0 0-.56.16zM62.18 25.63a.51.51 0 0 1-.16-.45v-1.27a.61.61 0 0 1 .14-.49 1.12 1.12 0 0 1 .62-.11 3.89 3.89 0 0 1 1 .13V23a4.1 4.1 0 0 0-.88-.1h-.72a.79.79 0 0 0-.3.1 1.07 1.07 0 0 0-.21.18.73.73 0 0 0-.15.3 1.84 1.84 0 0 0 0 .44v1.14a1.31 1.31 0 0 0 .08.48.83.83 0 0 0 .18.3.69.69 0 0 0 .31.16 1.77 1.77 0 0 0 .36.07h.44a4.84 4.84 0 0 0 1-.09v-.43a3.8 3.8 0 0 1-.94.12 1.31 1.31 0 0 1-.77-.04zM65.26 21.86h.57v.6h-.57zM65.26 22.99h.57v3.09h-.57zM69.16 22.92c-.62 0-1 .15-1 .44V23h-.57v3.1h.57v-2.26a.44.44 0 0 1 .17-.4 1.43 1.43 0 0 1 .68-.11 1.34 1.34 0 0 1 .36 0 .38.38 0 0 1 .2.12.47.47 0 0 1 .08.16.82.82 0 0 1 0 .19v2.24h.57v-2.23a.88.88 0 0 0-.23-.67 1.22 1.22 0 0 0-.83-.22zM74.08 23.29c-.1-.24-.41-.36-.95-.36a1.57 1.57 0 0 0-1 .24 1 1 0 0 0-.3.79v1.24a.89.89 0 0 0 .26.73 1.61 1.61 0 0 0 1 .21 2.17 2.17 0 0 0 .65-.09c.19-.06.29-.16.3-.31v.74a.53.53 0 0 1-.2.47 1.14 1.14 0 0 1-.64.14 9.9 9.9 0 0 1-1.12-.09v.41a6.65 6.65 0 0 0 1.07.07 2.13 2.13 0 0 0 1.1-.23 1 1 0 0 0 .37-.89V23h-.54zm0 2a.43.43 0 0 1-.19.41 1.4 1.4 0 0 1-.63.11 1.32 1.32 0 0 1-.63-.1.46.46 0 0 1-.16-.42v-1.4a.49.49 0 0 1 .15-.42 1.19 1.19 0 0 1 .63-.11 1.36 1.36 0 0 1 .68.11.47.47 0 0 1 .16.41zM15.12 2.4V25l12.38 2.4V0zm9.66 7.77h-2.93v8.61H20v-8.62h-2.9V8.61h7.68zM0 27.39L12.39 25V2.4L0 0zM5.64 8.61H7.5v10.17H5.64z"/></symbol><symbol id="pin-icon" viewBox="0 0 33 42"><title>pin-icon</title><path d="M16.5 6.79a9.67 9.67 0 1 0 9.71 9.67 9.7 9.7 0 0 0-9.71-9.67zm0 15.35a5.67 5.67 0 1 1 5.69-5.67 5.68 5.68 0 0 1-5.69 5.67z" fill="none"/><ellipse cx="16.5" cy="16.47" rx="5.69" ry="5.67"/><path d="M16.5 0A16.47 16.47 0 0 0 0 16.44C0 25.52 16.5 42 16.5 42S33 25.52 33 16.44A16.47 16.47 0 0 0 16.5 0zm0 26.14a9.67 9.67 0 1 1 9.71-9.67 9.7 9.7 0 0 1-9.71 9.67z"/></symbol><symbol id="service-bankruptcy-icon" viewBox="0 0 64 56.53"><title>service-bankruptcy-icon</title><path d="M34.13 22.4a9.6 9.6 0 1 0 9.6 9.6 9.56 9.56 0 0 0-9.6-9.6zm0 17.07A7.47 7.47 0 1 1 41.6 32a7.42 7.42 0 0 1-7.47 7.47zM45.87 19.63l5.33-5.33 5.23 5.33 1.6-1.6-5.34-5.23L58 7.57l-1.6-1.6-5.2 5.34L46 5.97l-1.6 1.49 5.31 5.34-5.33 5.23z"/><path d="M59.73 46.93A1 1 0 0 1 58.66 48H7.47a1 1 0 0 1-1.07-1.07V17.07A1 1 0 0 1 7.47 16h29.12c-.11-.75-.21-1.39-.32-2.13H7.47a3.14 3.14 0 0 0-3.2 3.2v3.2H3.2a3.14 3.14 0 0 0-3.2 3.2v29.86a3.14 3.14 0 0 0 3.2 3.2h51.2a3.14 3.14 0 0 0 3.2-3.2v-3.2h1.07a3.14 3.14 0 0 0 3.2-3.2V23.25a17.4 17.4 0 0 1-2.13 1.81zm-4.27 6.4a1 1 0 0 1-1.06 1.07H3.2a1 1 0 0 1-1.07-1.07V23.47A1 1 0 0 1 3.2 22.4h1.07v24.53a3.14 3.14 0 0 0 3.2 3.2h48z"/><path d="M16 19.31a6.42 6.42 0 0 1-6.4 6.4H8.53v12.8H9.6a6.42 6.42 0 0 1 6.4 6.4v1.07h35.2v-1.07a6.42 6.42 0 0 1 6.4-6.4h1.07v-12.8a15.35 15.35 0 0 1-3.84 1.6 8 8 0 0 0 1.71.43v8.64a8.49 8.49 0 0 0-7.36 7.36H18a8.49 8.49 0 0 0-7.36-7.36v-8.65A8.49 8.49 0 0 0 18 20.37h20.29a13.27 13.27 0 0 1-1.07-2.13H16z"/><path d="M51.2 25.6a12.8 12.8 0 1 0-12.8-12.8 12.84 12.84 0 0 0 12.8 12.8zm0-23.47A10.67 10.67 0 1 1 40.53 12.8 10.7 10.7 0 0 1 51.2 2.13z"/></symbol><symbol id="service-civil-icon" viewBox="0 0 50 64"><title>service-civil-icon</title><path d="M32.71 0H0v64h50V17.12zm.61 3.53l13.11 13H33.32zM2.07 61.93V2.07h29.17v16.51H47.9v43.35z"/><path d="M20.82 5.17H6.24v18.58h14.58zm-2.08 16.51H8.33V7.23h10.41zM43.75 28.9H6.24V31h37.5zM43.75 37.17H6.24v2.07h37.5zM8.33 45.42H6.24v2.07h2.09zM12.5 45.42h-2.09v2.07h2.09zM16.67 45.42h-2.09v2.07h2.08zM42.65 47.53a1 1 0 0 1-.31-.73 3.11 3.11 0 0 0-3.13-3.1 1.05 1.05 0 0 1-.74-.3l-.86-.86a3.15 3.15 0 0 0-4.42 0l-.86.86a1.08 1.08 0 0 1-.74.3 3.12 3.12 0 0 0-3.13 3.1 1 1 0 0 1-.31.73l-.86.86a3.08 3.08 0 0 0 0 4.38l.86.86a1 1 0 0 1 .31.73 3.11 3.11 0 0 0 3.13 3.1 1.05 1.05 0 0 1 .74.3l.86.86a3.15 3.15 0 0 0 4.42 0l.86-.86a1.05 1.05 0 0 1 .74-.3 3.11 3.11 0 0 0 3.13-3.1 1 1 0 0 1 .31-.73l.86-.86a3.08 3.08 0 0 0 0-4.38zM42 51.31l-.86.86a3.07 3.07 0 0 0-.92 2.19 1 1 0 0 1-1 1 3.15 3.15 0 0 0-2.22.94l-.86.86a1.07 1.07 0 0 1-1.47 0l-.86-.86a3.13 3.13 0 0 0-2.21-.91 1 1 0 0 1-1-1 3.1 3.1 0 0 0-.92-2.19l-.86-.86a1 1 0 0 1 0-1.46l.86-.86a3.07 3.07 0 0 0 .92-2.19 1 1 0 0 1 1-1 3.15 3.15 0 0 0 2.21-.91l.86-.86a1.05 1.05 0 0 1 1.47 0l.86.86a3.13 3.13 0 0 0 2.21.91 1 1 0 0 1 1 1 3.1 3.1 0 0 0 .97 2.17l.86.86a1 1 0 0 1 .31.73 1.06 1.06 0 0 1-.35.72z"/><path d="M34.68 46.92l-2.95 2.92 1.47 1.46 2.95-2.92zM33.94 53.5l1.47 1.5 4.42-4.38-1.47-1.46z"/></symbol><symbol id="service-corporate-icon" viewBox="0 0 80 64"><title>service-corporate-icon</title><path d="M76.13 10.24H54.19v-6.4A3.86 3.86 0 0 0 50.31 0H29.68a3.86 3.86 0 0 0-3.87 3.84v6.4H3.87A3.86 3.86 0 0 0 0 14.09v46.07A3.86 3.86 0 0 0 3.87 64h72.26A3.86 3.86 0 0 0 80 60.16V14.09a3.86 3.86 0 0 0-3.87-3.85zm-47.74-6.4a1.29 1.29 0 0 1 1.29-1.28h20.65a1.29 1.29 0 0 1 1.29 1.28v6.4H28.39zm-24.52 9h72.27a1.29 1.29 0 0 1 1.29 1.28v14.04H2.58V14.09a1.29 1.29 0 0 1 1.29-1.28zm52.9 17.91h5.17v7.65h-5.17zm-38.71 0h5.17v7.65h-5.17zm58.07 30.69H3.87a1.29 1.29 0 0 1-1.29-1.28V30.72h12.9v10.23H25.8V30.72h28.39v10.23H64.5V30.72h12.9v29.44a1.27 1.27 0 0 1-1.27 1.28z"/><path d="M38.71 19.21h2.58v2.56h-2.58zM43.87 19.21h2.58v2.56h-2.58zM33.54 19.21h2.58v2.56h-2.58z"/></symbol><symbol id="service-criminal-icon" viewBox="0 0 64 64"><title>service-criminal-icon</title><path d="M49.7 37.61a.76.76 0 0 0 .64-.88.78.78 0 0 0-.9-.62.76.76 0 0 0-.64.88.78.78 0 0 0 .9.62zM46.64 38a.76.76 0 0 0 .64-.88.78.78 0 0 0-.9-.62.76.76 0 0 0-.64.88.78.78 0 0 0 .9.62zM41.83 45.07A10.19 10.19 0 0 0 40 52.76a10.61 10.61 0 0 0 10.43 8.62 12.1 12.1 0 0 0 1.74-.17 10.35 10.35 0 0 0 8.69-11.83 10.69 10.69 0 0 0-19-4.31zM49 42.53a8.62 8.62 0 1 1 2.87 17 8.82 8.82 0 0 1-10.17-7.1A8.43 8.43 0 0 1 43.13 46 10.09 10.09 0 0 1 49 42.53zM28.68 15.4a.78.78 0 1 0-.82.72.77.77 0 0 0 .82-.72zM28.82 12.46a.78.78 0 1 0-.82.72.77.77 0 0 0 .82-.72zM12.79 23.43h.61a10.64 10.64 0 0 0 7-2.62 10 10 0 0 0 3.48-7.1 10.48 10.48 0 0 0-10-10.9 10.56 10.56 0 0 0-7.61 2.61 10 10 0 0 0-3.48 7.1 10.49 10.49 0 0 0 10 10.91zM4.54 12.61a8.71 8.71 0 0 1 3-5.92 9.15 9.15 0 0 1 6.43-2.2 8.69 8.69 0 0 1 8.34 9 8.71 8.71 0 0 1-3 5.92 9.15 9.15 0 0 1-6.43 2.2 8.59 8.59 0 0 1-8.34-9z"/><path d="M12.79 26.3h.78a13.64 13.64 0 0 0 12.08-7.18l2.43.17a3.18 3.18 0 0 0 3.39-3l.09-.93 1.3.17a3.15 3.15 0 0 0 .26.85A2.9 2.9 0 0 0 35 18.1l2.43.85a2.63 2.63 0 0 0 1.13.17 3.79 3.79 0 0 0 1-.17.62.62 0 0 1-.09.34 2.9 2.9 0 0 0 .87 2.37l1.74 1.86a3.94 3.94 0 0 0 1.48.93 3.37 3.37 0 0 0-.56 2.28l.35 2.37a3 3 0 0 0 1.22 2.11 3.2 3.2 0 0 0 1.43.59l.26 1.94-1 .25a3.09 3.09 0 0 0-2.61 3.55l.35 2.29a13 13 0 0 0-.43 21.72A13.79 13.79 0 0 0 50.43 64a20.33 20.33 0 0 0 2.26-.17 13.26 13.26 0 0 0 11.13-15.21 13.08 13.08 0 0 0-10-10.57l-.43-2.28a3.16 3.16 0 0 0-3.65-2.54l-1.56.25-.26-1.86a3.27 3.27 0 0 0 1.39-1 2.92 2.92 0 0 0 .61-2.37l-.35-2.37a3 3 0 0 0-1.22-2.11 2.75 2.75 0 0 0-.87-.42 3.25 3.25 0 0 0-.17-4.23l-1.74-1.86a3.58 3.58 0 0 0-2.35-1.1 2.63 2.63 0 0 0-1.13.17 3.37 3.37 0 0 0-.26-1.86 2.9 2.9 0 0 0-1.91-1.69l-2.43-.85a3.47 3.47 0 0 0-2.61.08 2.88 2.88 0 0 0-1.74 1.86l-1.56-.17.09-1.78a2.88 2.88 0 0 0-.78-2.2 3.26 3.26 0 0 0-2.17-1l-2.43-.17A13.55 13.55 0 0 0 14.36 0a14.11 14.11 0 0 0-9.82 3.3 13.27 13.27 0 0 0-4.52 9 13.25 13.25 0 0 0 3.39 9.55 14 14 0 0 0 9.38 4.45zM50 34.92h.26a1.39 1.39 0 0 1 1.39 1.18l.52 2.9a.93.93 0 0 0 .7.68 11.42 11.42 0 0 1-.35 22.57 11.86 11.86 0 0 1-8.78-1.94A11.14 11.14 0 0 1 39 52.84a11.35 11.35 0 0 1 5.56-11.75.85.85 0 0 0 .43-.85l-.52-2.87a1.26 1.26 0 0 1 1-1.69zm-2.17-8.79l.35 2.37a1.46 1.46 0 0 1-1.3 1.69 1.5 1.5 0 0 1-1.74-1.27l-.35-2.37a1.47 1.47 0 0 1 1.3-1.69h.17a1.33 1.33 0 0 1 1 .34 1.6 1.6 0 0 1 .56.93zM43 17.85a1.75 1.75 0 0 1 1.13.51l1.74 1.86a1.65 1.65 0 0 1-.09 2.28 1.77 1.77 0 0 1-2.35-.08l-1.74-1.86a2 2 0 0 1-.43-1.18 1.66 1.66 0 0 1 .52-1.1 1.86 1.86 0 0 1 1.22-.43zm-8.52-3.47a1.67 1.67 0 0 1 1.56-1.1 1.74 1.74 0 0 1 .61.08l2.43.85a1.56 1.56 0 0 1 1 .85 2.12 2.12 0 0 1 .09 1.27 1.55 1.55 0 0 1-.87.93 2.3 2.3 0 0 1-1.3.08l-2.43-.85a1.73 1.73 0 0 1-1.05-2.11zM1.75 12.53a11.35 11.35 0 0 1 3.92-7.95 12.12 12.12 0 0 1 7.82-3h.7A11.59 11.59 0 0 1 24.7 9.57a.83.83 0 0 0 .78.59l3 .17a1.1 1.1 0 0 1 1 .51 2.36 2.36 0 0 1 .35 1l-.17 4.4a1.51 1.51 0 0 1-1.56 1.35l-3-.17a1 1 0 0 0-.87.51 12 12 0 0 1-11.35 6.77A11.81 11.81 0 0 1 1.75 12.53z"/></symbol><symbol id="service-dtp-icon" viewBox="0 0 53 64"><title>service-dtp-icon</title><path d="M52.47 57.32l-4-4V1.8A1.8 1.8 0 0 0 46.71 0H1.8A1.8 1.8 0 0 0 0 1.8v55.89a1.8 1.8 0 0 0 1.8 1.8h40.58l4 4a1.79 1.79 0 0 0 2.54 0l3.59-3.61a1.81 1.81 0 0 0-.04-2.56zM11.68 2.7h34.13v49.2l-7.26-7.29 5.2-5.22a.9.9 0 0 0 0-1.27L35.67 30a.9.9 0 0 0-1.27 0L19.13 45.33a.9.9 0 0 0 0 1.27l8.08 8.11a.9.9 0 0 0 1.27 0l5.2-5.22 7.32 7.3H11.68zm-1.8 54.09H2.69V2.7h7.19zm19.44-5.46l-6.81-6.84 11-11.08 6.81 6.84zm-7.45-6.2L28.69 52l-.84.85L21 46zM41 39.61l-6.81-6.84.84-.85 6.81 6.84zm-6 8.62l2.32-2.33 12.65 12.7-2.32 2.33zm3.67-26.59a.9.9 0 0 0 .9-.9v-9.92a.9.9 0 0 0-.9-.9H18.86a.9.9 0 0 0-.9.9v9.92a.9.9 0 0 0 .9.9zm-18.91-9.92h18v8.11h-18z"/></symbol><symbol id="service-economy-icon" viewBox="0 0 64 64"><title>service-economy-icon</title><path d="M62.8 53.76l-1.2-1.21a4 4 0 0 0-3.22-1.18l-11.8-11.78A4.34 4.34 0 0 0 42 35l-7-7 .3-.3a4.09 4.09 0 0 0 4.8-.7l1.21-1.21a4.07 4.07 0 0 0 1.06-1.83 4.07 4.07 0 0 0 1.83-1.06l1.8-1.8a6.15 6.15 0 0 0 0-8.69L35.41 1.8a6.15 6.15 0 0 0-8.69 0l-1.8 1.8a4.06 4.06 0 0 0-1.06 1.83A4.07 4.07 0 0 0 22 6.49L20.82 7.7a4.1 4.1 0 0 0-.72 4.81l-7.59 7.59a4.09 4.09 0 0 0-4.81.72L6.49 22a4.06 4.06 0 0 0-1.06 1.83 4.07 4.07 0 0 0-1.83 1.09l-1.8 1.8a6.15 6.15 0 0 0 0 8.69L12.38 46a6.15 6.15 0 0 0 8.69 0l1.8-1.8a4.07 4.07 0 0 0 1.06-1.83 4.08 4.08 0 0 0 1.83-1.06L27 40.1a4.1 4.1 0 0 0 .72-4.81L28 35l7 7a4.34 4.34 0 0 0 4.59 4.59l11.79 11.77a4.05 4.05 0 0 0 1.18 3.23l1.21 1.21a4.08 4.08 0 0 0 5.78 0l3.26-3.26a4.09 4.09 0 0 0-.01-5.78zm-6.87 6.86l-1.2-1.2a1 1 0 0 1 0-1.45L58 54.73a1 1 0 0 1 1.45 0l1.2 1.2a1 1 0 0 1 0 1.45l-3.25 3.25a1 1 0 0 1-1.47-.01zM20.7 42l-1.8 1.8a3 3 0 0 1-.55.43L3.54 29.43a3 3 0 0 1 .46-.54l1.8-1.8a1 1 0 0 1 1.45 0L20.7 40.57a1 1 0 0 1 0 1.43zM3.13 30.47l14.19 14.19a3.07 3.07 0 0 1-2.76-.84L4 33.23a3.07 3.07 0 0 1-.87-2.76zm19 8.66L8.66 25.64a1 1 0 0 1 0-1.45L9.86 23a1 1 0 0 1 1.45 0L24.8 36.48a1 1 0 0 1 0 1.45l-1.2 1.2a1 1 0 0 1-1.45 0zm4.96-33.36L28.89 4a3.11 3.11 0 0 1 .55-.43l14.81 14.79a3 3 0 0 1-.43.55L42 20.7a1 1 0 0 1-1.45 0L27.09 7.22a1 1 0 0 1 0-1.45zm17.57 11.55L30.47 3.13a3.09 3.09 0 0 1 .59-.06 3 3 0 0 1 2.17.9l10.59 10.59a3.07 3.07 0 0 1 .84 2.76zm-19-8.66l13.47 13.49a1 1 0 0 1 0 1.45l-1.2 1.2a1 1 0 0 1-1.45 0L23 11.31a1 1 0 0 1 0-1.45l1.2-1.2a1 1 0 0 1 1.44 0zm3.8 23.42l2.65-2.65 7.77 7.77-2.65 2.65zm-4.52 1.62L14.08 22.87l8.79-8.79 10.84 10.84zm13.41 7.9l3.25-3.25c1-1 2.6.66 1.62 1.62L40 43.22c-1 .97-2.62-.65-1.65-1.62zm3.37 2.77l2.65-2.65 11.86 11.86-2.65 2.65z"/></symbol><symbol id="service-state-icon" viewBox="0 0 73 64"><title>service-state-icon</title><path d="M71.67 33l-9-22h3.9a1.83 1.83 0 0 0 1.82-1.83V7.31a1.83 1.83 0 0 0-1.54-1.81L40.72 2a5.43 5.43 0 0 0-8.43 0L6.15 5.5a1.83 1.83 0 0 0-1.59 1.81v1.83A1.83 1.83 0 0 0 6.39 11h3.9l-9 22A1.82 1.82 0 0 0 0 34.74v2.74a1.83 1.83 0 0 0 1.83 1.83H2l3.1 3.13a1.82 1.82 0 0 0 1.29.56h11.86a1.82 1.82 0 0 0 1.29-.54l3.12-3.12h.16a1.83 1.83 0 0 0 1.83-1.83v-2.77A1.82 1.82 0 0 0 23.31 33l-9-22h18.5v38.4h-.91a1.83 1.83 0 0 0-1.83 1.83v2.9l-3.49 3.5h-2a1.83 1.83 0 0 0-1.83 1.83v2.74a1.83 1.83 0 0 0 1.89 1.8h23.72a1.83 1.83 0 0 0 1.83-1.83v-2.74a1.83 1.83 0 0 0-1.83-1.83h-2l-3.49-3.5v-2.9a1.83 1.83 0 0 0-1.83-1.83h-.91V11h18.5l-9 22a1.82 1.82 0 0 0-1.33 1.75v2.74a1.83 1.83 0 0 0 1.83 1.83h.16l3.12 3.12a1.83 1.83 0 0 0 1.29.54h11.91a1.83 1.83 0 0 0 1.29-.54l3.1-3.13h.16A1.83 1.83 0 0 0 73 37.49v-2.75A1.82 1.82 0 0 0 71.67 33zM21.9 36.57H2.74v-.91H21.9zm-1.29.91l-2.74 2.74H6.77L4 37.49zM4.32 32.91l8-19.68 8 19.68zM40.13 8.23a4.54 4.54 0 0 0 .94-2.74 4.51 4.51 0 0 0-.07-.68l24.7 3.3v.11zm7.32 52.11v.91h-21.9v-.91zm-18.78-.91l3.66-3.67h8.34l3.66 3.67zM7.3 8.23v-.12L32 4.81a4.54 4.54 0 0 0-.07.67 4.53 4.53 0 0 0 .94 2.74zm31.94-2.74a2.74 2.74 0 1 1-2.74-2.75 2.74 2.74 0 0 1 2.74 2.75zM35.59 10a4.56 4.56 0 0 0 1.82 0v40.29h-1.82zm4.56 42.15v2.74h-7.3v-2.78zm30.11-15.58H51.1v-.91h19.16zm-1.26.92l-2.74 2.74H55.13l-2.74-2.74zm-16.32-4.58l8-19.68 8 19.68z"/></symbol><symbol id="twitter-icon" viewBox="0 0 26 26"><title>twitter-icon</title><path d="M0 0v26h26V0zm20.16 9.33v.48A10.5 10.5 0 0 1 4 18.65a7.45 7.45 0 0 0 5.47-1.53A3.7 3.7 0 0 1 6 14.56a3.7 3.7 0 0 0 1.67-.06 3.7 3.7 0 0 1-3-3.62 3.68 3.68 0 0 0 1.67.46 3.7 3.7 0 0 1-1.09-4.98 10.48 10.48 0 0 0 7.61 3.86 3.7 3.7 0 0 1 6.29-3.37A7.39 7.39 0 0 0 21.5 6a3.7 3.7 0 0 1-1.62 2A7.38 7.38 0 0 0 22 7.42a7.5 7.5 0 0 1-1.84 1.91z"/></symbol><symbol id="youtube-icon" viewBox="0 0 26 26"><title>youtube-icon</title><path d="M19.74 7A60.51 60.51 0 0 0 13 6.73 60.52 60.52 0 0 0 6.26 7a2.27 2.27 0 0 0-1.94 1.75A19.26 19.26 0 0 0 4 13a19.25 19.25 0 0 0 .31 4.26A2.27 2.27 0 0 0 6.26 19a60.49 60.49 0 0 0 6.74.25 60.48 60.48 0 0 0 6.74-.25 2.28 2.28 0 0 0 1.95-1.77A19.26 19.26 0 0 0 22 13a19.24 19.24 0 0 0-.31-4.25A2.27 2.27 0 0 0 19.74 7zm-9.07 8.82v-6l5.72 3z" fill="none"/><path d="M0 0v26h26V0zm21.69 17.25A2.28 2.28 0 0 1 19.74 19a60.48 60.48 0 0 1-6.74.25A60.49 60.49 0 0 1 6.26 19a2.27 2.27 0 0 1-1.95-1.77A19.25 19.25 0 0 1 4 13a19.26 19.26 0 0 1 .32-4.25A2.27 2.27 0 0 1 6.26 7 60.52 60.52 0 0 1 13 6.73a60.51 60.51 0 0 1 6.74.27 2.27 2.27 0 0 1 1.95 1.77A19.24 19.24 0 0 1 22 13a19.26 19.26 0 0 1-.31 4.25z"/><path d="M10.68 15.79l5.72-3-5.72-3z"/></symbol></svg>