<svg xmlns="http://www.w3.org/2000/svg" width="74.84" height="27.49" viewBox="0 0 74.84 27.49"><title>IT-Doors-logo</title><path d="M40.85,9.41a7.81,7.81,0,0,0-3.67-.64H32.89V18.85h4.3a8,8,0,0,0,3.71-.61A2.43,2.43,0,0,0,42,15.93v-4.1A2.55,2.55,0,0,0,40.85,9.41Zm-1.31,6.52a.94.94,0,0,1-.53,1,5.92,5.92,0,0,1-1.93.21H35.31V10.5h1.85a4.36,4.36,0,0,1,1.78.28,1,1,0,0,1,.59,1Z"/><path d="M51,17.52a3,3,0,0,0,.23-1.25V14.05A3.3,3.3,0,0,0,51,12.72a2.29,2.29,0,0,0-.59-.85,2.47,2.47,0,0,0-.91-.46,5.23,5.23,0,0,0-1-.2q-.44,0-1.08,0c-.43,0-.78,0-1.08,0a5.22,5.22,0,0,0-1,.2,2.49,2.49,0,0,0-.91.46,2.3,2.3,0,0,0-.59.85,3.3,3.3,0,0,0-.24,1.33v2.22a3,3,0,0,0,.23,1.25,2.2,2.2,0,0,0,.57.81,2.37,2.37,0,0,0,.89.44,5.53,5.53,0,0,0,1,.19q.45,0,1.11,0t1.11,0a5.51,5.51,0,0,0,1-.19,2.38,2.38,0,0,0,.89-.44A2.23,2.23,0,0,0,51,17.52Zm-2-1a1,1,0,0,1-.3.82,3.46,3.46,0,0,1-2.5,0,1,1,0,0,1-.3-.82V13.69a1.06,1.06,0,0,1,.31-.86,3.14,3.14,0,0,1,2.48,0,1.06,1.06,0,0,1,.31.86Z"/><path d="M59.6,11.88a2.48,2.48,0,0,0-.91-.46,5.2,5.2,0,0,0-1-.2c-.29,0-.65,0-1.08,0s-.79,0-1.08,0a5.21,5.21,0,0,0-1,.2,2.51,2.51,0,0,0-.91.46,2.31,2.31,0,0,0-.59.85,3.31,3.31,0,0,0-.24,1.33v2.22A3,3,0,0,0,53,17.52a2.2,2.2,0,0,0,.58.81,2.34,2.34,0,0,0,.89.44,5.51,5.51,0,0,0,1,.19q.46,0,1.11,0t1.11,0a5.52,5.52,0,0,0,1-.19,2.37,2.37,0,0,0,.89-.44,2.19,2.19,0,0,0,.57-.81,3,3,0,0,0,.24-1.25V14.05a3.29,3.29,0,0,0-.24-1.33A2.29,2.29,0,0,0,59.6,11.88Zm-1.44,4.66a1,1,0,0,1-.3.82,3.46,3.46,0,0,1-2.5,0,1,1,0,0,1-.3-.82V13.69a1.06,1.06,0,0,1,.31-.86,3.14,3.14,0,0,1,2.48,0,1.06,1.06,0,0,1,.31.86Z"/><path d="M65,11.64a1.33,1.33,0,0,0-.65,1V11.33H62.2v7.51h2.27V14.33a1.06,1.06,0,0,1,.47-1,2.76,2.76,0,0,1,1.4-.29h.78V11.18h-.81A2.2,2.2,0,0,0,65,11.64Z"/><path d="M72.07,14.11h-1a.94.94,0,0,1-.6-.15.44.44,0,0,1-.19-.34v-.4a.52.52,0,0,1,.25-.51,3.26,3.26,0,0,1,1.2-.13q.31,0,2.73.19V11.32q-1.93-.14-2.67-.14a7.77,7.77,0,0,0-2.76.39,1.41,1.41,0,0,0-1,1.41v.92a1.6,1.6,0,0,0,.66,1.39,3.1,3.1,0,0,0,1.84.48h1a1.43,1.43,0,0,1,.87.18.68.68,0,0,1,.2.54v.47a.51.51,0,0,1-.37.52,3.18,3.18,0,0,1-1,.13,23.83,23.83,0,0,1-3-.33v1.51a22.92,22.92,0,0,0,3,.23q.64,0,1.11,0a6.45,6.45,0,0,0,1-.16,2.42,2.42,0,0,0,.83-.35,1.72,1.72,0,0,0,.53-.63,2.05,2.05,0,0,0,.21-1v-.95Q74.83,14.11,72.07,14.11Z"/><path d="M34.87,21.86q-1.74,0-1.74,1.19v2q0,1.13,1.74,1.13a3.72,3.72,0,0,0,.6,0,2.68,2.68,0,0,0,.56-.16.94.94,0,0,0,.44-.35,1,1,0,0,0,.16-.58V23Q36.63,21.86,34.87,21.86ZM36,25q0,.72-1.15.72T33.73,25V23a.75.75,0,0,1,.1-.39.6.6,0,0,1,.27-.24,1.3,1.3,0,0,1,.36-.11,2.88,2.88,0,0,1,.43,0Q36,22.27,36,23Z"/><path d="M40.38,25.32a.33.33,0,0,1-.19.33,1.7,1.7,0,0,1-.67.09,1.34,1.34,0,0,1-.36,0,.39.39,0,0,1-.21-.12.42.42,0,0,1-.08-.16.77.77,0,0,1,0-.19V23h-.58v2.27a.88.88,0,0,0,.23.67,1.23,1.23,0,0,0,.84.22q.93,0,1-.44v.38H41V23h-.58Z"/><path d="M43.54,22H43v1h-.69v.38H43v1.82a1,1,0,0,0,.23.76,1.24,1.24,0,0,0,.81.2,3.83,3.83,0,0,0,.65-.05v-.38l-.46.05a.83.83,0,0,1-.52-.11.58.58,0,0,1-.13-.44V23.36h1.11V23H43.54Z"/><path d="M47.33,24.26H47c-.38,0-.57-.1-.57-.31v-.26a.31.31,0,0,1,.17-.3,1.44,1.44,0,0,1,.62-.09,6,6,0,0,1,1,.09V23l-.94-.05c-.92,0-1.38.24-1.38.73v.29a.67.67,0,0,0,.25.55,1.14,1.14,0,0,0,.74.2h.35a.85.85,0,0,1,.44.08.3.3,0,0,1,.13.28v.31a.29.29,0,0,1-.19.3,1.7,1.7,0,0,1-.58.07,8.29,8.29,0,0,1-1.08-.12v.44a7.81,7.81,0,0,0,1.06.08,2.13,2.13,0,0,0,1-.19.72.72,0,0,0,.35-.69V25Q48.31,24.26,47.33,24.26Z"/><path d="M52.33,23.18A.66.66,0,0,0,52,23a1.87,1.87,0,0,0-.38-.07h-1a1.85,1.85,0,0,0-.38.07.67.67,0,0,0-.31.18,1,1,0,0,0-.18.33,1.56,1.56,0,0,0-.07.52V25.1a1.52,1.52,0,0,0,.09.58.6.6,0,0,0,.31.32,1.47,1.47,0,0,0,.43.13,5.61,5.61,0,0,0,.6,0h.48a1.86,1.86,0,0,0,.38-.07.7.7,0,0,0,.31-.17.82.82,0,0,0,.18-.31,1.48,1.48,0,0,0,.07-.49V24a1.59,1.59,0,0,0-.07-.52A.94.94,0,0,0,52.33,23.18Zm-.33,2a1,1,0,0,1,0,.33.3.3,0,0,1-.17.18.79.79,0,0,1-.25.07h-.38a3,3,0,0,1-.38,0,.8.8,0,0,1-.25-.07.3.3,0,0,1-.17-.18,1,1,0,0,1,0-.33V23.93c0-.29.06-.46.17-.53a2.22,2.22,0,0,1,1.33,0q.17.1.17.53Z"/><path d="M56.31,25.32a.33.33,0,0,1-.19.33,1.71,1.71,0,0,1-.66.09,1.35,1.35,0,0,1-.36,0,.38.38,0,0,1-.21-.12.43.43,0,0,1-.08-.16.77.77,0,0,1,0-.19V23h-.58v2.27a.88.88,0,0,0,.23.67,1.22,1.22,0,0,0,.84.22q.93,0,1-.44v.38h.58V23h-.58Z"/><path d="M59.44,23.09a.48.48,0,0,0-.28.4V23h-.54v3.09h.58V23.9a.4.4,0,0,1,.19-.38,1.26,1.26,0,0,1,.58-.1h.32v-.49H60A1.07,1.07,0,0,0,59.44,23.09Z"/><path d="M62.18,25.63a.51.51,0,0,1-.16-.45V23.91a.61.61,0,0,1,.14-.49,1.12,1.12,0,0,1,.62-.11,3.89,3.89,0,0,1,1,.13V23a4.1,4.1,0,0,0-.88-.1h-.39l-.33,0a.79.79,0,0,0-.3.1,1.07,1.07,0,0,0-.21.18.73.73,0,0,0-.15.3,1.84,1.84,0,0,0,0,.44v1.14a1.31,1.31,0,0,0,.08.48.83.83,0,0,0,.18.3.69.69,0,0,0,.31.16,1.77,1.77,0,0,0,.36.07h.44a4.84,4.84,0,0,0,1-.09v-.43a3.8,3.8,0,0,1-.94.12A1.31,1.31,0,0,1,62.18,25.63Z"/><rect x="65.26" y="21.86" width="0.57" height="0.6"/><rect x="65.26" y="22.99" width="0.57" height="3.09"/><path d="M69.16,22.92c-.62,0-1,.15-1,.44V23h-.57v3.1h.57V23.84a.44.44,0,0,1,.17-.4,1.43,1.43,0,0,1,.68-.11,1.34,1.34,0,0,1,.36,0,.38.38,0,0,1,.2.12.47.47,0,0,1,.08.16.82.82,0,0,1,0,.19v2.24h.57V23.81a.88.88,0,0,0-.23-.67A1.22,1.22,0,0,0,69.16,22.92Z"/><path d="M74.08,23.29c-.1-.24-.41-.36-.95-.36a1.57,1.57,0,0,0-1,.24,1,1,0,0,0-.3.79V25.2a.89.89,0,0,0,.26.73,1.61,1.61,0,0,0,1,.21,2.17,2.17,0,0,0,.65-.09c.19-.06.29-.16.3-.31v.74a.53.53,0,0,1-.2.47,1.14,1.14,0,0,1-.64.14A9.9,9.9,0,0,1,72.08,27v.41a6.65,6.65,0,0,0,1.07.07,2.13,2.13,0,0,0,1.1-.23,1,1,0,0,0,.37-.89V23h-.54Zm0,2a.43.43,0,0,1-.19.41,1.4,1.4,0,0,1-.63.11,1.32,1.32,0,0,1-.63-.1.46.46,0,0,1-.16-.42v-1.4a.49.49,0,0,1,.15-.42,1.19,1.19,0,0,1,.63-.11,1.36,1.36,0,0,1,.68.11.47.47,0,0,1,.16.41Z"/><path d="M15.12,2.4V25l12.38,2.4V0Zm9.66,7.77H21.85v8.61H20V10.16H17.1V8.61h7.68Z"/><path d="M0,27.39,12.39,25V2.4L0,0ZM5.64,8.61H7.5V18.78H5.64Z"/></svg>
