<svg xmlns="http://www.w3.org/2000/svg" width="80" height="64" viewBox="0 0 80 64"><title>service-corporate-icon</title><path d="M76.13,10.24H54.19V3.84A3.86,3.86,0,0,0,50.31,0H29.68a3.86,3.86,0,0,0-3.87,3.84v6.4H3.87A3.86,3.86,0,0,0,0,14.09V60.16A3.86,3.86,0,0,0,3.87,64H76.13A3.86,3.86,0,0,0,80,60.16V14.09A3.86,3.86,0,0,0,76.13,10.24ZM28.39,3.84a1.29,1.29,0,0,1,1.29-1.28H50.33a1.29,1.29,0,0,1,1.29,1.28v6.4H28.39Zm-24.52,9H76.14a1.29,1.29,0,0,1,1.29,1.28V28.16H2.58V14.09A1.29,1.29,0,0,1,3.87,12.81Zm52.9,17.91h5.17V38.4H56.77Zm-38.71,0h5.17V38.4H18.06ZM76.13,61.44H3.87a1.29,1.29,0,0,1-1.29-1.28V30.72h12.9V40.95H25.8V30.72H54.19V40.95H64.5V30.72H77.4V60.16A1.27,1.27,0,0,1,76.13,61.44Z" transform="translate(0 0)"/><rect x="38.71" y="19.21" width="2.58" height="2.56"/><rect x="43.87" y="19.21" width="2.58" height="2.56"/><rect x="33.54" y="19.21" width="2.58" height="2.56"/></svg>