<svg xmlns="http://www.w3.org/2000/svg" width="64" height="56.53" viewBox="0 0 64 56.53"><title>service-bankruptcy-icon</title><path d="M34.13,25.6a9.6,9.6,0,1,0,9.6,9.6A9.56,9.56,0,0,0,34.13,25.6Zm0,17.07A7.47,7.47,0,1,1,41.6,35.2,7.42,7.42,0,0,1,34.13,42.67Z" transform="translate(0 -3.2)"/><path d="M45.87,22.83l5.33-5.33,5.23,5.33,1.6-1.6L52.69,16,58,10.77l-1.6-1.6L51.2,14.51,46,9.17l-1.6,1.49L49.71,16l-5.33,5.23Z" transform="translate(0 -3.2)"/><path d="M59.73,50.13a1,1,0,0,1-1.07,1.07H7.47A1,1,0,0,1,6.4,50.13V20.27A1,1,0,0,1,7.47,19.2H36.59c-.11-.75-.21-1.39-.32-2.13H7.47a3.14,3.14,0,0,0-3.2,3.2v3.2H3.2A3.14,3.14,0,0,0,0,26.67V56.53a3.14,3.14,0,0,0,3.2,3.2H54.4a3.14,3.14,0,0,0,3.2-3.2v-3.2h1.07a3.14,3.14,0,0,0,3.2-3.2V26.45a17.4,17.4,0,0,1-2.13,1.81Zm-4.27,6.4A1,1,0,0,1,54.4,57.6H3.2a1,1,0,0,1-1.07-1.07V26.67A1,1,0,0,1,3.2,25.6H4.27V50.13a3.14,3.14,0,0,0,3.2,3.2h48Z" transform="translate(0 -3.2)"/><path d="M16,22.51a6.42,6.42,0,0,1-6.4,6.4H8.53v12.8H9.6a6.42,6.42,0,0,1,6.4,6.4v1.07H51.2V48.11a6.42,6.42,0,0,1,6.4-6.4h1.07V28.91a15.35,15.35,0,0,1-3.84,1.6,8,8,0,0,0,1.71.43v8.64a8.49,8.49,0,0,0-7.36,7.36H18a8.49,8.49,0,0,0-7.36-7.36V30.93A8.49,8.49,0,0,0,18,23.57H38.29a13.27,13.27,0,0,1-1.07-2.13H16Z" transform="translate(0 -3.2)"/><path d="M51.2,28.8A12.8,12.8,0,1,0,38.4,16,12.84,12.84,0,0,0,51.2,28.8Zm0-23.47A10.67,10.67,0,1,1,40.53,16,10.7,10.7,0,0,1,51.2,5.33Z" transform="translate(0 -3.2)"/></svg>