<svg xmlns="http://www.w3.org/2000/svg" width="64" height="64" viewBox="0 0 64 64"><title>service-economy-icon</title><path d="M62.8,53.76,61.6,52.55a4,4,0,0,0-3.22-1.18L46.58,39.59A4.34,4.34,0,0,0,42,35l-7-7,.3-.3A4.09,4.09,0,0,0,40.1,27l1.21-1.21a4.07,4.07,0,0,0,1.06-1.83,4.07,4.07,0,0,0,1.83-1.06l1.8-1.8a6.15,6.15,0,0,0,0-8.69L35.41,1.8a6.15,6.15,0,0,0-8.69,0l-1.8,1.8a4.06,4.06,0,0,0-1.06,1.83A4.07,4.07,0,0,0,22,6.49L20.82,7.7a4.1,4.1,0,0,0-.72,4.81L12.51,20.1a4.09,4.09,0,0,0-4.81.72L6.49,22a4.06,4.06,0,0,0-1.06,1.83A4.07,4.07,0,0,0,3.6,24.92l-1.8,1.8a6.15,6.15,0,0,0,0,8.69L12.38,46a6.15,6.15,0,0,0,8.69,0l1.8-1.8a4.07,4.07,0,0,0,1.06-1.83,4.08,4.08,0,0,0,1.83-1.06L27,40.1a4.1,4.1,0,0,0,.72-4.81L28,35l7,7a4.34,4.34,0,0,0,4.59,4.59L51.38,58.36a4.05,4.05,0,0,0,1.18,3.23l1.21,1.21a4.08,4.08,0,0,0,5.78,0l3.26-3.26A4.09,4.09,0,0,0,62.8,53.76Zm-6.87,6.86-1.2-1.2a1,1,0,0,1,0-1.45L58,54.73a1,1,0,0,1,1.45,0l1.2,1.2a1,1,0,0,1,0,1.45l-3.25,3.25A1,1,0,0,1,55.93,60.62ZM20.7,42l-1.8,1.8a3,3,0,0,1-.55.43L3.54,29.43A3,3,0,0,1,4,28.89l1.8-1.8a1,1,0,0,1,1.45,0L20.7,40.57A1,1,0,0,1,20.7,42ZM3.13,30.47,17.32,44.66a3.07,3.07,0,0,1-2.76-.84L4,33.23A3.07,3.07,0,0,1,3.13,30.47Zm19,8.66L8.66,25.64a1,1,0,0,1,0-1.45L9.86,23a1,1,0,0,1,1.45,0L24.8,36.48a1,1,0,0,1,0,1.45l-1.2,1.2A1,1,0,0,1,22.15,39.13ZM27.09,5.77,28.89,4a3.11,3.11,0,0,1,.55-.43L44.25,18.36a3,3,0,0,1-.43.55L42,20.7a1,1,0,0,1-1.45,0L27.09,7.22A1,1,0,0,1,27.09,5.77ZM44.66,17.32,30.47,3.13a3.09,3.09,0,0,1,.59-.06,3,3,0,0,1,2.17.9L43.82,14.56A3.07,3.07,0,0,1,44.66,17.32Zm-19-8.66L39.13,22.15a1,1,0,0,1,0,1.45l-1.2,1.2a1,1,0,0,1-1.45,0L23,11.31a1,1,0,0,1,0-1.45l1.2-1.2A1,1,0,0,1,25.64,8.66Zm3.8,23.42,2.65-2.65,7.77,7.77-2.65,2.65Zm-4.52,1.62L14.08,22.87l8.79-8.79L33.71,24.92ZM38.35,41.6l3.25-3.25c1-1,2.6.66,1.62,1.62L40,43.22C39,44.19,37.38,42.57,38.35,41.6Zm3.37,2.77,2.65-2.65L56.23,53.58l-2.65,2.65Z" transform="translate(0)"/></svg>