<svg xmlns="http://www.w3.org/2000/svg" width="50" height="64" viewBox="0 0 50 64"><title>service-civil-icon</title><path d="M32.71,0H0V64H50V17.12Zm.61,3.53,13.11,13H33.32ZM2.07,61.93V2.07H31.24V18.58H47.9V61.93Z" transform="translate(0)"/><path d="M20.82,5.17H6.24V23.75H20.82ZM18.74,21.68H8.33V7.23H18.74Z" transform="translate(0)"/><path d="M43.75,28.9H6.24V31h37.5Z" transform="translate(0)"/><path d="M43.75,37.17H6.24v2.07h37.5Z" transform="translate(0)"/><path d="M8.33,45.42H6.24v2.07H8.33Z" transform="translate(0)"/><path d="M12.5,45.42H10.41v2.07H12.5Z" transform="translate(0)"/><path d="M16.67,45.42H14.58v2.07h2.08Z" transform="translate(0)"/><path d="M42.65,47.53a1,1,0,0,1-.31-.73,3.11,3.11,0,0,0-3.13-3.1,1.05,1.05,0,0,1-.74-.3l-.86-.86a3.15,3.15,0,0,0-4.42,0l-.86.86a1.08,1.08,0,0,1-.74.3,3.12,3.12,0,0,0-3.13,3.1,1,1,0,0,1-.31.73l-.86.86a3.08,3.08,0,0,0,0,4.38l.86.86a1,1,0,0,1,.31.73,3.11,3.11,0,0,0,3.13,3.1,1.05,1.05,0,0,1,.74.3l.86.86a3.15,3.15,0,0,0,4.42,0l.86-.86a1.05,1.05,0,0,1,.74-.3,3.11,3.11,0,0,0,3.13-3.1,1,1,0,0,1,.31-.73l.86-.86a3.08,3.08,0,0,0,0-4.38ZM42,51.31l-.86.86a3.07,3.07,0,0,0-.92,2.19,1,1,0,0,1-1,1A3.15,3.15,0,0,0,37,56.3l-.86.86a1.07,1.07,0,0,1-1.47,0l-.86-.86a3.13,3.13,0,0,0-2.21-.91,1,1,0,0,1-1-1,3.1,3.1,0,0,0-.92-2.19l-.86-.86a1,1,0,0,1,0-1.46l.86-.86a3.07,3.07,0,0,0,.92-2.19,1,1,0,0,1,1-1,3.15,3.15,0,0,0,2.21-.91l.86-.86a1.05,1.05,0,0,1,1.47,0l.86.86a3.13,3.13,0,0,0,2.21.91,1,1,0,0,1,1,1A3.1,3.1,0,0,0,41.18,49l.86.86a1,1,0,0,1,.31.73A1.06,1.06,0,0,1,42,51.31Z" transform="translate(0)"/><path d="M34.68,46.92l-2.95,2.92L33.2,51.3l2.95-2.92Z" transform="translate(0)"/><path d="M33.94,53.5,35.41,55l4.42-4.38-1.47-1.46Z" transform="translate(0)"/></svg>