<svg xmlns="http://www.w3.org/2000/svg" width="53" height="64" viewBox="0 0 53 64"><title>service-dtp-icon</title><path d="M52.47,57.32l-4-4V1.8A1.8,1.8,0,0,0,46.71,0H1.8A1.8,1.8,0,0,0,0,1.8V57.69a1.8,1.8,0,0,0,1.8,1.8H42.38l4,4a1.79,1.79,0,0,0,2.54,0l3.59-3.61A1.81,1.81,0,0,0,52.47,57.32ZM11.68,2.7H45.81v49.2l-7.26-7.29,5.2-5.22a.9.9,0,0,0,0-1.27L35.67,30a.9.9,0,0,0-1.27,0L19.13,45.33a.9.9,0,0,0,0,1.27l8.08,8.11a.9.9,0,0,0,1.27,0l5.2-5.22L41,56.79H11.68ZM9.88,56.79H2.69V2.7H9.88Zm19.44-5.46-6.81-6.84,11-11.08,6.81,6.84Zm-7.45-6.2L28.69,52l-.84.85L21,46ZM41,39.61l-6.81-6.84.84-.85,6.81,6.84Zm-6,8.62,2.32-2.33,12.65,12.7-2.32,2.33Zm3.67-26.59a.9.9,0,0,0,.9-.9V10.82a.9.9,0,0,0-.9-.9H18.86a.9.9,0,0,0-.9.9v9.92a.9.9,0,0,0,.9.9ZM19.76,11.72h18v8.11h-18Z"/></svg>