<svg xmlns="http://www.w3.org/2000/svg" width="73" height="64" viewBox="0 0 73 64"><title>service-state-icon</title><path d="M71.67,33l-9-22h3.9a1.83,1.83,0,0,0,1.82-1.83V7.31A1.83,1.83,0,0,0,66.85,5.5L40.72,2a5.43,5.43,0,0,0-8.43,0L6.15,5.5A1.83,1.83,0,0,0,4.56,7.31V9.14A1.83,1.83,0,0,0,6.39,11h3.9l-9,22A1.82,1.82,0,0,0,0,34.74v2.74a1.83,1.83,0,0,0,1.83,1.83H2L5.1,42.44A1.82,1.82,0,0,0,6.39,43H18.25a1.82,1.82,0,0,0,1.29-.54l3.12-3.12h.16a1.83,1.83,0,0,0,1.83-1.83V34.74A1.82,1.82,0,0,0,23.31,33l-9-22h18.5v38.4h-.91a1.83,1.83,0,0,0-1.83,1.83v2.9l-3.49,3.5h-2a1.83,1.83,0,0,0-1.83,1.83v2.74A1.83,1.83,0,0,0,24.64,64H48.36a1.83,1.83,0,0,0,1.83-1.83V59.43a1.83,1.83,0,0,0-1.83-1.83h-2l-3.49-3.5V51.2a1.83,1.83,0,0,0-1.83-1.83h-.91V11h18.5l-9,22a1.82,1.82,0,0,0-1.33,1.75v2.74a1.83,1.83,0,0,0,1.83,1.83h.16l3.12,3.12a1.83,1.83,0,0,0,1.29.54H66.61a1.83,1.83,0,0,0,1.29-.54L71,39.31h.16A1.83,1.83,0,0,0,73,37.49V34.74A1.82,1.82,0,0,0,71.67,33ZM21.9,36.57H2.74v-.91H21.9Zm-1.29.91-2.74,2.74H6.77L4,37.49ZM4.32,32.91l8-19.68,8,19.68ZM40.13,8.23a4.54,4.54,0,0,0,.94-2.74A4.51,4.51,0,0,0,41,4.81l24.7,3.3v.11Zm7.32,52.11v.91H25.55v-.91Zm-18.78-.91,3.66-3.67h8.34l3.66,3.67ZM7.3,8.23V8.11L32,4.81a4.54,4.54,0,0,0-.07.67,4.53,4.53,0,0,0,.94,2.74ZM39.24,5.49A2.74,2.74,0,1,1,36.5,2.74,2.74,2.74,0,0,1,39.24,5.49ZM35.59,10a4.56,4.56,0,0,0,1.82,0V50.29H35.59Zm4.56,42.15v2.74h-7.3V52.11ZM70.26,36.57H51.1v-.91H70.26ZM69,37.49l-2.74,2.74H55.13l-2.74-2.74ZM52.68,32.91l8-19.68,8,19.68Z"/></svg>