<svg xmlns="http://www.w3.org/2000/svg" width="26" height="26" viewBox="0 0 26 26"><title>youtube-icon</title><path d="M19.74,7A60.51,60.51,0,0,0,13,6.73,60.52,60.52,0,0,0,6.26,7,2.27,2.27,0,0,0,4.32,8.75,19.26,19.26,0,0,0,4,13a19.25,19.25,0,0,0,.31,4.26A2.27,2.27,0,0,0,6.26,19a60.49,60.49,0,0,0,6.74.25A60.48,60.48,0,0,0,19.74,19a2.28,2.28,0,0,0,1.95-1.77A19.26,19.26,0,0,0,22,13a19.24,19.24,0,0,0-.31-4.25A2.27,2.27,0,0,0,19.74,7Zm-9.07,8.82v-6l5.72,3Z" style="fill:none"/><path d="M0,0V26H26V0ZM21.69,17.25A2.28,2.28,0,0,1,19.74,19a60.48,60.48,0,0,1-6.74.25A60.49,60.49,0,0,1,6.26,19a2.27,2.27,0,0,1-1.95-1.77A19.25,19.25,0,0,1,4,13a19.26,19.26,0,0,1,.32-4.25A2.27,2.27,0,0,1,6.26,7,60.52,60.52,0,0,1,13,6.73,60.51,60.51,0,0,1,19.74,7a2.27,2.27,0,0,1,1.95,1.77A19.24,19.24,0,0,1,22,13,19.26,19.26,0,0,1,21.69,17.25Z"/><path d="M10.68,15.79l5.72-3-5.72-3Z"/></svg>